<?xml version="1.0" encoding="UTF-8"?>
<svg id="Layer_2" data-name="Layer 2" xmlns="http://www.w3.org/2000/svg" viewBox="0 0 104.7 43.17">
  <defs>
    <style>
      .cls-1 {
        fill: #fff;
      }

      .cls-2 {
        fill: #6acbe1;
      }
    </style>
  </defs>
  <g id="Layer_1-2" data-name="Layer 1">
    <path class="cls-1" d="m102.47,43.11h-2.53c-3.31,0-6.25-2.08-7.37-5.19l-7.01-19.6c-.05-.25-.24-.38-.58-.38s-.58.13-.7.38l-7.01,19.98c-.98,2.8-3.58,4.7-6.54,4.8-.08.01-.17.01-.25.01h-1.07c-1.77-.16-3.3-.74-4.59-1.74-1.46-1.12-2.69-2.84-3.69-5.17l-5.42-17.29c-.18-.39-.41-.68-.67-.88-.27-.2-.56-.3-.86-.3-.38,0-.71.16-.98.47-.26.32-.4.74-.4,1.26v16.74c0,2.36-.94,4.16-2.83,5.39-1.61,1.05-3.69,1.58-6.23,1.58-2.07,0-3.89-.69-5.46-2.06-1.68-1.48-2.96-3.66-3.83-6.54l-5.17-16.81h-15.48c-1.83,0-3.28.93-4.33,2.8-.95,1.67-1.43,3.74-1.43,6.19s.48,4.68,1.45,6.47c1.07,1.98,2.51,2.96,4.31,2.96l2.99.15h3.73c.77,0,1.4-.32,1.88-.95.43-.57.65-1.26.65-2.07s-.22-1.44-.65-2.01c-.43-.56-1.06-.84-1.88-.84h-2.98c-.41,0-.75-.34-.75-.75v-4.74c0-.81.65-1.47,1.46-1.47h3.5c2.87,0,5.14,1.03,6.81,3.07,1.53,1.85,2.29,4.11,2.29,6.76s-.76,4.94-2.26,6.77c-1.67,2.04-3.95,3.06-6.84,3.06h-9.2c-3.99,0-7.14-1.64-9.45-4.93-2.07-2.94-3.1-6.57-3.1-10.89s1.05-8.16,3.15-11.25c2.34-3.41,5.48-5.12,9.4-5.12h17.33c3,0,5.66,1.93,6.58,4.77l6.14,18.83c0,.37.12.71.35,1.01.34.41.68.62,1.03.62.49,0,.82-.15,1-.45.19-.3.28-.7.28-1.18v-16.91c0-2.05.92-3.75,2.76-5.11,1.73-1.27,3.78-1.91,6.14-1.91,2.05,0,3.85.5,5.38,1.49,1.74,1.12,2.93,2.76,3.56,4.92l5.98,17.26.09.26c.07.19.14.36.22.51l.02.06.34.85c.22-.64.44-1.32.67-2.02,1.52-4.51,3.01-8.82,4.46-12.92,1.61-4.48,2.59-6.99,2.96-7.53.68-.9,1.67-1.59,2.94-2.06,1.28-.48,2.67-.71,4.18-.71s2.87.23,4.16.71c1.28.47,2.25,1.16,2.9,2.06.42.53,1.42,3.03,3.01,7.51,1.12,3.15,2.59,7.45,4.41,12.91,1,3.06,2.01,6.11,3.03,9.17Z"/>
    <g>
      <path class="cls-2" d="m100.84,3.28c2.19,2.09,3.37,4.56,3.81,7.55.01.1.03.19.04.29.05.56-.22,1.02-.73,1.22-.49.2-.84-.02-.97-.53-.33-1.26-.54-2.61-1.06-3.74-1.72-3.77-4.85-5.85-9.24-6.32-.08,0-.17-.01-.25-.02-.67-.06-.94-.39-.74-.93.21-.57.72-.91,1.39-.78,1.39.27,2.79.52,4.09.95,1.52.51,2.79,1.39,3.67,2.31Z"/>
      <path class="cls-2" d="m97.97,5.96c1.65,1.65,2.54,3.57,2.71,5.96.03.43-.06.85-.5,1.19-.61.46-1.18.23-1.32-.43-.23-1.05-.39-2.16-.81-3.09-1.14-2.49-3.26-3.79-6.21-4-.63-.04-.89-.39-.71-.96.17-.55.66-.94,1.19-.91,1.84.08,3.43.61,4.78,1.56.36.25.69.53.87.68Z"/>
      <path class="cls-2" d="m95.13,9.25c.96.92,1.51,2.13,1.62,3.62.05.62-.23,1.12-.75,1.33-.57.23-.99-.02-1.07-.65-.3-2.4-1.63-3.76-4.03-4.03-.55-.06-.77-.47-.55-1.04.21-.55.67-.85,1.23-.8,1.44.11,2.62.63,3.54,1.56Z"/>
    </g>
  </g>
</svg>